<svg xmlns="http://www.w3.org/2000/svg" xmlns:xlink="http://www.w3.org/1999/xlink" width="42.135" height="42.13" viewBox="0 0 42.135 42.13"><defs><style>.a{fill:#fff;}.b{filter:url(#a);}</style><filter id="a" x="0" y="0" width="42.135" height="42.13" filterUnits="userSpaceOnUse"><feOffset dy="3" input="SourceAlpha"/><feGaussianBlur stdDeviation="3" result="b"/><feFlood flood-opacity="0.161"/><feComposite operator="in" in2="b"/><feComposite in="SourceGraphic"/></filter></defs><g class="b" transform="matrix(1, 0, 0, 1, 0, 0)"><path class="a" d="M12,37.7a6.187,6.187,0,1,0,6.187,6.187A6.177,6.177,0,0,0,12,37.7Zm0,10.209a4.022,4.022,0,1,1,4.022-4.022A4.029,4.029,0,0,1,12,47.912ZM19.878,37.45a1.443,1.443,0,1,1-1.443-1.443A1.44,1.44,0,0,1,19.878,37.45Zm4.1,1.465a7.141,7.141,0,0,0-1.949-5.056,7.188,7.188,0,0,0-5.056-1.949c-1.992-.113-7.964-.113-9.956,0a7.178,7.178,0,0,0-5.056,1.944A7.165,7.165,0,0,0,.01,38.91C-.1,40.9-.1,46.873.01,48.865a7.141,7.141,0,0,0,1.949,5.056A7.2,7.2,0,0,0,7.015,55.87c1.992.113,7.964.113,9.956,0a7.141,7.141,0,0,0,5.056-1.949,7.188,7.188,0,0,0,1.949-5.056C24.089,46.873,24.089,40.907,23.976,38.915ZM21.4,51A4.072,4.072,0,0,1,19.108,53.3c-1.588.63-5.357.485-7.113.485s-5.53.14-7.113-.485A4.072,4.072,0,0,1,2.589,51c-.63-1.588-.485-5.357-.485-7.113s-.14-5.53.485-7.113a4.072,4.072,0,0,1,2.294-2.294C6.471,33.854,10.24,34,12,34s5.53-.14,7.113.485A4.072,4.072,0,0,1,21.4,36.777c.63,1.588.485,5.357.485,7.113S22.032,49.42,21.4,51Z" transform="translate(9.07 -25.82)"/></g></svg>