<svg xmlns="http://www.w3.org/2000/svg" xmlns:xlink="http://www.w3.org/1999/xlink" width="44.707" height="44.707" viewBox="0 0 44.707 44.707"><defs><style>.a{fill:#fff;}.b{filter:url(#a);}</style><filter id="a" x="0" y="0" width="44.707" height="44.707" filterUnits="userSpaceOnUse"><feOffset dy="3" input="SourceAlpha"/><feGaussianBlur stdDeviation="3" result="b"/><feFlood flood-opacity="0.161"/><feComposite operator="in" in2="b"/><feComposite in="SourceGraphic"/></filter></defs><g class="b" transform="matrix(1, 0, 0, 1, 0, 0)"><path class="a" d="M13.353,8A13.353,13.353,0,1,0,26.707,21.353,13.358,13.358,0,0,0,13.353,8Zm5.422,19.648a1.027,1.027,0,0,1-.576-.194c-3.36-2.025-7.269-2.111-11.13-1.319a3.477,3.477,0,0,1-.641.14.838.838,0,0,1-.851-.851.853.853,0,0,1,.732-.9c4.41-.975,8.917-.888,12.761,1.411a.911.911,0,0,1,.522.888A.814.814,0,0,1,18.775,27.648Zm1.448-3.532a1.33,1.33,0,0,1-.662-.226A17.449,17.449,0,0,0,6.714,22.306a2.218,2.218,0,0,1-.641.14A1.046,1.046,0,0,1,5.029,21.4a1.059,1.059,0,0,1,.835-1.115,18.111,18.111,0,0,1,5.266-.732A18.848,18.848,0,0,1,20.66,22a1.123,1.123,0,0,1,.608,1.061A1.043,1.043,0,0,1,20.224,24.115Zm1.669-4.1a1.238,1.238,0,0,1-.695-.21c-3.834-2.288-10.688-2.838-15.125-1.6a2.557,2.557,0,0,1-.695.14,1.243,1.243,0,0,1-1.255-1.271,1.272,1.272,0,0,1,.937-1.287,22.567,22.567,0,0,1,6.327-.818,22.741,22.741,0,0,1,11.06,2.574,1.264,1.264,0,0,1,.695,1.217,1.247,1.247,0,0,1-1.249,1.255Z" transform="translate(9 -2)"/></g></svg>