<svg xmlns="http://www.w3.org/2000/svg" xmlns:xlink="http://www.w3.org/1999/xlink" width="45.568" height="40.39" viewBox="0 0 45.568 40.39"><defs><style>.a{fill:#fff;}.b{filter:url(#a);}</style><filter id="a" x="0" y="0" width="45.568" height="40.39" filterUnits="userSpaceOnUse"><feOffset dy="3" input="SourceAlpha"/><feGaussianBlur stdDeviation="3" result="b"/><feFlood flood-opacity="0.161"/><feComposite operator="in" in2="b"/><feComposite in="SourceGraphic"/></filter></defs><g class="b" transform="matrix(1, 0, 0, 1, 0, 0)"><path class="a" d="M24.734,53.662c.017.245.017.49.017.735,0,7.469-5.685,16.076-16.076,16.076A15.967,15.967,0,0,1,0,67.936a11.688,11.688,0,0,0,1.364.07,11.315,11.315,0,0,0,7.014-2.414A5.66,5.66,0,0,1,3.1,61.674a7.125,7.125,0,0,0,1.067.087,5.976,5.976,0,0,0,1.487-.192,5.651,5.651,0,0,1-4.531-5.545v-.07a5.69,5.69,0,0,0,2.554.717,5.658,5.658,0,0,1-1.749-7.557,16.06,16.06,0,0,0,11.65,5.912,6.378,6.378,0,0,1-.14-1.294,5.655,5.655,0,0,1,9.778-3.866A11.124,11.124,0,0,0,26.8,48.5a5.635,5.635,0,0,1-2.484,3.114,11.327,11.327,0,0,0,3.254-.875A12.145,12.145,0,0,1,24.734,53.662Z" transform="translate(9 -42.08)"/></g></svg>