<svg xmlns="http://www.w3.org/2000/svg" xmlns:xlink="http://www.w3.org/1999/xlink" width="71" height="78.992" viewBox="0 0 71 78.992"><defs><style>.a{fill:#7400cd;}.b{filter:url(#a);}</style><filter id="a" x="0" y="0" width="71" height="78.992" filterUnits="userSpaceOnUse"><feOffset dy="3" input="SourceAlpha"/><feGaussianBlur stdDeviation="3" result="b"/><feFlood flood-opacity="0.161"/><feComposite operator="in" in2="b"/><feComposite in="SourceGraphic"/></filter></defs><g class="b" transform="matrix(1, 0, 0, 1, 0, 0)"><path class="a" d="M27.224,60.69l-.51-9.518c0-.226-.054-.381.261-.427l23.865-3.3L27.592,60.9a.636.636,0,0,1-.246.088C27.243,60.992,27.241,60.882,27.224,60.69Zm-1.483.071L2.231,47.423l22.975,3.311c.313.05.354.173.368.475l.5,9.352c.027.2.009.3-.086.3A.56.56,0,0,1,25.74,60.762ZM27.188,49.2l15.8-27.793a1.757,1.757,0,0,1,.154-.3h0c.03-.012.056.078.119.308l9.458,24.032c.136.4.149.538-.249.629L27.39,49.535a1.262,1.262,0,0,1-.191.019C27,49.554,27.049,49.44,27.188,49.2Zm-2.54.309L.688,46.046C.18,45.952.2,45.764.332,45.263L8.343,21.682a1.271,1.271,0,0,1,.119-.308c.031-.022.064.041.166.249L24.933,49.131c.1.193.153.392-.14.392A.984.984,0,0,1,24.649,49.511Zm1.163-1.127L9.482,20.839c-.227-.374-.246-.375.214-.368l32.161-.083h0c.414.007.315.161.178.38L26.346,48.36c-.147.22-.211.331-.276.331S25.947,48.589,25.812,48.384Zm25.028-.938h0ZM44.088,20.471c-.1-.208-.118-.375.154-.5l7.666-3.5a1.255,1.255,0,0,1,.32-.107c.107-.008.111.092.131.38L53,43.079ZM.819,17.066l6.61,3c.228.107.23.124.119.451L0,42.687Zm9.1,1.863L25.622.143A.394.394,0,0,1,25.93,0a.286.286,0,0,1,.237.083L41.6,18.869c.28.366.278.344-.154.38l-31.449.083C9.642,19.329,9.66,19.256,9.921,18.929ZM43.1,18.893,28.945,1.673h0l22.287,13.4c.326.221.394.266-.095.487l-7.465,3.418a.819.819,0,0,1-.309.107C43.271,19.083,43.209,19.022,43.1,18.893ZM7.833,19,1.4,16.081,21.955,2.552a2.289,2.289,0,0,1,.38-.249,2.571,2.571,0,0,1-.285.344L8.485,18.846c-.131.163-.219.226-.342.226A1.072,1.072,0,0,1,7.833,19Z" transform="translate(9 6)"/></g></svg>